<svg width="90" height="82" viewBox="0 0 90 82" fill="none" xmlns="http://www.w3.org/2000/svg">
<path d="M56.6386 71.3034L88.7679 31.9407C89.7978 30.679 88.5953 28.8405 87.0266 29.2784L77.1892 32.0242C76.8588 32.1164 76.5648 32.3083 76.3473 32.5736L46.6272 68.8305C46.3827 69.1288 46.2491 69.5026 46.2491 69.8884V75.8777C46.2491 76.4356 46.5279 76.9566 46.9921 77.2661L53.6684 81.7169C54.7774 82.4562 56.2627 81.6613 56.2627 80.3285L56.2626 72.3585C56.2626 71.974 56.3955 71.6013 56.6386 71.3034Z" fill="#009DC4"/>
<path d="M32.5127 71.3034L0.383375 31.9407C-0.646478 30.679 0.556013 28.8405 2.1247 29.2784L11.9621 32.0242C12.2925 32.1164 12.5865 32.3083 12.804 32.5736L42.5241 68.8305C42.7686 69.1288 42.9022 69.5026 42.9022 69.8884V75.8777C42.9022 76.4356 42.6234 76.9566 42.1592 77.2661L35.4829 81.7169C34.3739 82.4562 32.8886 81.6613 32.8886 80.3285L32.8886 72.3585C32.8887 71.974 32.7558 71.6013 32.5127 71.3034Z" fill="#009DC4"/>
<path d="M41.9632 1.2204C43.3098 -0.406798 45.8416 -0.4068 47.1881 1.2204L55.5059 11.2715C56.509 12.4836 56.509 14.2193 55.5059 15.4314L47.1882 25.4825C45.8416 27.1097 43.3098 27.1097 41.9632 25.4825L33.6455 15.4314C32.6424 14.2193 32.6424 12.4836 33.6455 11.2715L41.9632 1.2204Z" fill="#009DC4"/>
<path d="M41.9632 37.9369C43.3098 36.3097 45.8416 36.3097 47.1881 37.9369L55.5059 47.9881C56.509 49.2001 56.509 50.9358 55.5059 52.1479L47.1882 62.199C45.8416 63.8262 43.3098 63.8262 41.9632 62.199L33.6455 52.1479C32.6424 50.9358 32.6424 49.2001 33.6455 47.9881L41.9632 37.9369Z" fill="#009DC4"/>
<path d="M56.984 19.5787C58.3306 17.9515 60.8624 17.9515 62.2089 19.5787L70.5267 29.6299C71.5298 30.8419 71.5298 32.5776 70.5267 33.7897L62.2089 43.8408C60.8624 45.468 58.3306 45.468 56.984 43.8408L48.6663 33.7897C47.6632 32.5776 47.6632 30.842 48.6663 29.6299L56.984 19.5787Z" fill="#009DC4"/>
<path d="M26.942 19.5787C28.2886 17.9515 30.8203 17.9515 32.1669 19.5787L40.4847 29.6299C41.4877 30.8419 41.4877 32.5776 40.4847 33.7897L32.1669 43.8408C30.8203 45.468 28.2886 45.468 26.942 43.8408L18.6242 33.7897C17.6212 32.5776 17.6212 30.842 18.6242 29.6299L26.942 19.5787Z" fill="#009DC4"/>
</svg>
