<svg width="179" height="40" viewBox="0 0 179 40" fill="none" xmlns="http://www.w3.org/2000/svg">
<path d="M27.6286 34.7821L43.3014 15.5809C43.8038 14.9654 43.2172 14.0685 42.452 14.2821L37.6533 15.6216C37.4921 15.6665 37.3487 15.7601 37.2426 15.8896L22.745 33.5759C22.6257 33.7214 22.5605 33.9037 22.5605 34.0919V37.0135C22.5605 37.2857 22.6965 37.5398 22.923 37.6908L26.1797 39.8619C26.7207 40.2225 27.4452 39.8348 27.4452 39.1846L27.4452 35.2968C27.4452 35.1093 27.51 34.9274 27.6286 34.7821Z" fill="#009DC4"/>
<path d="M15.8599 34.7821L0.187012 15.5809C-0.315355 14.9654 0.271226 14.0685 1.03644 14.2821L5.83517 15.6216C5.99636 15.6665 6.13976 15.7601 6.24585 15.8896L20.7435 33.5759C20.8627 33.7214 20.9279 33.9037 20.9279 34.0919V37.0135C20.9279 37.2857 20.7919 37.5398 20.5655 37.6908L17.3087 39.8619C16.7678 40.2225 16.0432 39.8348 16.0432 39.1846L16.0432 35.2968C16.0432 35.1093 15.9785 34.9274 15.8599 34.7821Z" fill="#009DC4"/>
<path d="M20.4699 0.595317C21.1267 -0.198438 22.3617 -0.198439 23.0186 0.595316L27.0761 5.49831C27.5654 6.08957 27.5654 6.93623 27.0761 7.5275L23.0186 12.4305C22.3617 13.2242 21.1267 13.2242 20.4699 12.4305L16.4124 7.5275C15.9231 6.93623 15.9231 6.08957 16.4124 5.49831L20.4699 0.595317Z" fill="#009DC4"/>
<path d="M20.4699 18.5058C21.1267 17.7121 22.3617 17.7121 23.0186 18.5058L27.0761 23.4088C27.5654 24.0001 27.5654 24.8467 27.0761 25.438L23.0186 30.341C22.3617 31.1347 21.1267 31.1347 20.4699 30.341L16.4124 25.438C15.9231 24.8467 15.9231 24.0001 16.4124 23.4088L20.4699 18.5058Z" fill="#009DC4"/>
<path d="M27.7971 9.5506C28.454 8.75684 29.689 8.75684 30.3458 9.5506L34.4033 14.4536C34.8926 15.0449 34.8926 15.8915 34.4033 16.4828L30.3458 21.3858C29.689 22.1795 28.454 22.1795 27.7971 21.3858L23.7396 16.4828C23.2503 15.8915 23.2503 15.0449 23.7396 14.4536L27.7971 9.5506Z" fill="#009DC4"/>
<path d="M13.1424 9.5506C13.7993 8.75684 15.0343 8.75684 15.6912 9.5506L19.7486 14.4536C20.2379 15.0449 20.2379 15.8915 19.7486 16.4828L15.6912 21.3858C15.0343 22.1795 13.7993 22.1795 13.1424 21.3858L9.08499 16.4828C8.59569 15.8915 8.59569 15.0449 9.08499 14.4536L13.1424 9.5506Z" fill="#009DC4"/>
<path d="M69.4162 10.541L78.8174 10.541C81.0643 10.541 83.045 10.9746 84.7597 11.8418C86.4941 12.6893 87.8343 13.8916 88.7804 15.4486C89.7461 17.0056 90.229 18.8188 90.229 20.8883C90.229 22.9577 89.7461 24.771 88.7804 26.328C87.8343 27.885 86.4941 29.0971 84.7597 29.9643C83.045 30.8118 81.0643 31.2355 78.8174 31.2355L69.4162 31.2355L69.4162 10.541ZM78.5809 27.3036C80.6504 27.3036 82.2961 26.732 83.518 25.5889C84.7597 24.4261 85.3805 22.8592 85.3805 20.8883C85.3805 18.9174 84.7597 17.3604 83.518 16.2172C82.2961 15.0544 80.6504 14.473 78.5809 14.473L74.2055 14.473L74.2055 27.3036L78.5809 27.3036Z" fill="#18181A"/>
<path d="M177.531 14.1741L177.531 30.6784L173.026 30.6784L173.026 28.7764C171.857 30.208 170.164 30.9238 167.947 30.9238C166.415 30.9238 165.024 30.5761 163.775 29.8808C162.545 29.1854 161.578 28.1936 160.872 26.9051C160.167 25.6167 159.814 24.1237 159.814 22.4263C159.814 20.7288 160.167 19.2358 160.872 17.9474C161.578 16.659 162.545 15.6671 163.775 14.9717C165.024 14.2764 166.415 13.9287 167.947 13.9287C170.023 13.9287 171.646 14.5934 172.815 15.9227L172.815 14.1741L177.531 14.1741ZM168.763 26.9972C169.952 26.9972 170.94 26.5881 171.726 25.7701C172.512 24.9316 172.905 23.817 172.905 22.4263C172.905 21.0356 172.512 19.9312 171.726 19.1131C170.94 18.2746 169.952 17.8554 168.763 17.8554C167.554 17.8554 166.556 18.2746 165.77 19.1131C164.984 19.9312 164.591 21.0356 164.591 22.4263C164.591 23.817 164.984 24.9316 165.77 25.7701C166.556 26.5881 167.554 26.9972 168.763 26.9972Z" fill="#18181A"/>
<path d="M56.7545 14.4434L50.1323 14.4434L50.1323 10.541L68.1661 10.541L68.1661 14.4434L61.5438 14.4434L61.5438 31.2355L56.7545 31.2355L56.7545 14.4434Z" fill="#18181A"/>
<path d="M99.0614 31.1864C97.6441 31.1864 96.2585 31.0171 94.9046 30.6785C93.5507 30.3187 92.4719 29.8743 91.668 29.3453L93.318 25.7901C94.0796 26.2768 94.9998 26.6789 96.0787 26.9963C97.1575 27.2926 98.2152 27.4407 99.2518 27.4407C101.346 27.4407 102.393 26.9222 102.393 25.8853C102.393 25.3986 102.108 24.9633 101.536 24.7517C100.965 24.54 100.087 24.3602 98.9027 24.212C97.5066 24.0004 96.3537 23.757 95.444 23.4819C94.5344 23.2068 93.7411 22.7201 93.0642 22.0218C92.4084 21.3234 92.0805 20.4149 92.0805 19.124C92.0805 18.0447 92.3873 17.0924 93.0007 16.2671C93.6354 15.4206 94.545 14.7646 95.7296 14.2991C96.9354 13.8335 98.3527 13.6007 99.9816 13.6007C101.187 13.6007 102.383 13.7383 103.567 14.0134C104.773 14.2673 105.767 14.6271 106.55 15.0926L104.9 18.6161C103.398 17.7696 101.759 17.3464 99.9816 17.3464C98.9239 17.3464 98.1306 17.4945 97.6018 17.7908C97.0729 18.0871 96.8085 18.468 96.8085 18.9335C96.8085 19.4626 97.0941 19.8329 97.6652 20.0446C98.2364 20.2562 99.146 20.4572 100.394 20.6477C101.79 20.8805 102.933 21.1344 103.821 21.4095C104.71 21.6635 105.482 22.1396 106.137 22.838C106.793 23.5363 107.121 24.5098 107.121 25.7583C107.121 26.8164 106.804 27.7581 106.169 28.5834C105.535 29.4088 104.604 30.0542 103.377 30.5198C102.171 30.9642 100.733 31.1864 99.0614 31.1864Z" fill="#18181A"/>
<path d="M119.185 13.7647C120.719 13.7647 122.11 14.1226 123.358 14.8385C124.626 15.5339 125.618 16.5259 126.334 17.8145C127.05 19.0827 127.408 20.5656 127.408 22.2633C127.408 23.9609 127.05 25.4541 126.334 26.7427C125.618 28.0108 124.626 29.0028 123.358 29.7187C122.11 30.4142 120.719 30.7619 119.185 30.7619C117.078 30.7619 115.422 30.0971 114.215 28.7676L114.215 36.4685L109.428 36.4685L109.428 14.0101L114 14.0101L114 15.9123C115.186 14.4805 116.915 13.7646 119.185 13.7647ZM118.357 26.8347C119.584 26.8347 120.586 26.4256 121.364 25.6075C122.161 24.7689 122.56 23.6541 122.56 22.2633C122.56 20.8724 122.161 19.7679 121.364 18.9497C120.586 18.1111 119.584 17.6918 118.357 17.6918C117.129 17.6918 116.117 18.1111 115.319 18.9497C114.542 19.7679 114.153 20.8724 114.153 22.2633C114.153 23.6541 114.542 24.7689 115.319 25.6075C116.117 26.4256 117.129 26.8347 118.357 26.8347Z" fill="#18181A"/>
<path d="M137.817 30.9238C136.08 30.9238 134.517 30.5659 133.128 29.8501C131.759 29.1139 130.687 28.1015 129.91 26.8131C129.134 25.5247 128.746 24.0624 128.746 22.4263C128.746 20.7902 129.134 19.3279 129.91 18.0394C130.687 16.751 131.759 15.7489 133.128 15.0331C134.517 14.2968 136.08 13.9287 137.817 13.9287C139.553 13.9287 141.106 14.2968 142.475 15.0331C143.843 15.7489 144.916 16.751 145.692 18.0394C146.469 19.3279 146.857 20.7902 146.857 22.4263C146.857 24.0624 146.469 25.5247 145.692 26.8131C144.916 28.1015 143.843 29.1139 142.475 29.8501C141.106 30.5659 139.553 30.9238 137.817 30.9238ZM137.817 26.9972C139.042 26.9972 140.043 26.5881 140.82 25.7701C141.617 24.9316 142.015 23.817 142.015 22.4263C142.015 21.0356 141.617 19.9312 140.82 19.1131C140.043 18.2746 139.042 17.8554 137.817 17.8554C136.591 17.8554 135.58 18.2746 134.783 19.1131C133.986 19.9312 133.588 21.0356 133.588 22.4263C133.588 23.817 133.986 24.9316 134.783 25.7701C135.58 26.5881 136.591 26.9972 137.817 26.9972Z" fill="#18181A"/>
<path d="M153.31 16.3824C153.867 15.5857 154.614 14.983 155.549 14.5743C156.505 14.1657 157.6 13.9614 158.834 13.9614L158.834 18.3744C158.317 18.3336 157.968 18.3131 157.789 18.3131C156.455 18.3131 155.41 18.7013 154.654 19.4777C153.897 20.2336 153.519 21.3777 153.519 22.91L153.519 30.6941L148.86 30.6941L148.86 14.2066L153.31 14.2066L153.31 16.3824Z" fill="#18181A"/>
</svg>
